<?xml version="1.0" standalone="no"?><svg xmlns="http://www.w3.org/2000/svg" viewBox="0 0 1440 320"><path fill="#5E4792" fill-opacity="1" d="M0,160L26.7,170.7C53.3,181,107,203,160,229.3C213.3,256,267,288,320,293.3C373.3,299,427,277,480,261.3C533.3,245,587,235,640,240C693.3,245,747,267,800,272C853.3,277,907,267,960,229.3C1013.3,192,1067,128,1120,122.7C1173.3,117,1227,171,1280,181.3C1333.3,192,1387,160,1413,144L1440,128L1440,0L1413.3,0C1386.7,0,1333,0,1280,0C1226.7,0,1173,0,1120,0C1066.7,0,1013,0,960,0C906.7,0,853,0,800,0C746.7,0,693,0,640,0C586.7,0,533,0,480,0C426.7,0,373,0,320,0C266.7,0,213,0,160,0C106.7,0,53,0,27,0L0,0Z"></path></svg>