<?xml version="1.0" standalone="no"?>
<!DOCTYPE svg PUBLIC "-//W3C//DTD SVG 20010904//EN"
 "http://www.w3.org/TR/2001/REC-SVG-20010904/DTD/svg10.dtd">
<svg version="1.0" xmlns="http://www.w3.org/2000/svg"
 width="1152.000000pt" height="648.000000pt" viewBox="0 0 1152.000000 648.000000"
 preserveAspectRatio="xMidYMid meet">
<metadata>
Created by potrace 1.16, written by Peter Selinger 2001-2019
</metadata>
<g transform="translate(0.000000,648.000000) scale(0.100000,-0.100000)"
fill="#5E4792" stroke="none">
<path d="M10005 6469 c-1457 -76 -2506 -209 -3345 -423 -523 -133 -889 -276
-1155 -452 -117 -77 -270 -229 -313 -311 -47 -89 -66 -187 -52 -266 31 -169
161 -327 377 -458 394 -239 978 -387 1688 -429 438 -25 550 -68 550 -209 0
-96 -84 -241 -229 -399 -31 -33 -56 -67 -56 -75 0 -16 -161 -154 -295 -253
-309 -227 -643 -388 -985 -474 -199 -50 -383 -79 -865 -135 -907 -107 -1506
-258 -2289 -579 -110 -46 -212 -86 -226 -89 -47 -11 -234 -144 -298 -210 -81
-85 -112 -150 -112 -239 0 -43 7 -86 20 -120 126 -333 862 -736 2317 -1267
l223 -81 3280 0 3280 0 0 3240 0 3240 -682 -1 c-376 -1 -750 -5 -833 -10z"/>
</g>
</svg>
