<?xml version="1.0" standalone="no"?>
<!DOCTYPE svg PUBLIC "-//W3C//DTD SVG 20010904//EN"
 "http://www.w3.org/TR/2001/REC-SVG-20010904/DTD/svg10.dtd">
<svg version="1.0" xmlns="http://www.w3.org/2000/svg"
 width="320.000000pt" height="593.000000pt" viewBox="0 0 320.000000 593.000000"
 preserveAspectRatio="xMidYMid meet">
<metadata>
Created by potrace 1.16, written by Peter Selinger 2001-2019
</metadata>
<g transform="translate(0.000000,593.000000) scale(0.100000,-0.100000)"
fill="#5e4792" stroke="none">
<path d="M0 3305 c0 -2492 1 -2626 18 -2631 9 -3 37 -15 62 -26 342 -157 590
-242 773 -267 100 -14 263 -14 347 0 247 40 515 203 895 543 261 235 360 319
436 376 170 126 354 204 556 237 l113 18 0 2188 0 2187 -1600 0 -1600 0 0
-2625z"/>
</g>
</svg>
