<?xml version="1.0" standalone="no"?>
<!DOCTYPE svg PUBLIC "-//W3C//DTD SVG 20010904//EN"
 "http://www.w3.org/TR/2001/REC-SVG-20010904/DTD/svg10.dtd">
<svg version="1.0" xmlns="http://www.w3.org/2000/svg"
 width="696.000000pt" height="564.000000pt" viewBox="0 0 696.000000 564.000000"
 preserveAspectRatio="xMidYMid meet">
<metadata>
Created by potrace 1.16, written by Peter Selinger 2001-2019
</metadata>
<g transform="translate(0.000000,564.000000) scale(0.100000,-0.100000)"
fill="#5E4792" stroke="none">
<path d="M0 2820 l0 -2820 44 0 44 0 134 180 c334 450 468 749 468 1045 0 176
-39 321 -179 658 -123 297 -155 398 -172 542 -17 154 16 282 108 420 73 109
130 175 336 389 426 443 530 621 514 880 -22 345 -331 746 -1105 1435 -97 86
-105 91 -147 91 l-45 0 0 -2820z"/>
<path d="M6590 5552 c-727 -298 -1037 -504 -1194 -794 -61 -114 -80 -201 -80
-368 0 -206 39 -368 156 -640 108 -254 240 -485 603 -1065 485 -774 658 -1102
741 -1410 23 -84 28 -121 28 -230 1 -111 -2 -140 -22 -197 -94 -273 -385 -462
-1067 -698 -66 -22 -130 -50 -142 -62 -28 -26 -30 -64 -4 -78 13 -6 246 -10
685 -10 l666 0 0 2820 0 2820 -77 0 c-75 -1 -87 -4 -293 -88z"/>
</g>
</svg>
